<svg width="186" height="29" viewBox="0 0 186 29" fill="none" xmlns="http://www.w3.org/2000/svg">
<path d="M26.9384 11.7994C24.6351 11.7994 22.7925 13.9827 22.7925 16.6639V27.3121H17.802V0.5H22.7925V10.9567C23.9441 9.04158 26.0939 7.77758 28.5891 7.77758C33.1957 7.77758 35.2686 10.8418 35.2686 15.0552V27.3121H30.2782V15.6297C30.2782 13.14 29.1649 11.7994 27.2455 11.7994H26.9384Z" fill="white"/>
<path d="M11.3058 23.0988H14.0697V27.3121H9.19442C5.93143 27.3121 4.20397 25.5885 4.20397 22.3327V12.1824H0.25V8.16061H4.20397V1.95552H9.19442V8.16061H13.4939V12.1824H9.19442V20.9921C9.19442 22.7158 9.5783 23.0988 11.3058 23.0988Z" fill="white"/>
<path d="M40.0281 5.67091H45.4025V0.5H40.0281V5.67091Z" fill="white"/>
<path d="M40.2201 27.3121H45.2105V8.16061H40.2201V27.3121Z" fill="white"/>
<path d="M55.3324 27.3121H50.3419V8.16061H55.3324V11.9909C56.1001 9.50121 58.0195 7.96909 60.8987 7.96909H61.8583V12.5655H60.1309C56.8679 12.5655 55.3324 14.0976 55.3324 17.3533V27.3121Z" fill="white"/>
<path fill-rule="evenodd" clip-rule="evenodd" d="M72.1838 27.6952C74.871 27.6952 76.944 26.163 77.7117 24.8224V27.3121H82.7022V0.5H77.7117V10.6503C76.944 9.3097 74.871 7.77758 72.1838 7.77758C66.6176 7.77758 63.6617 12.5655 63.6617 17.7364C63.6617 22.9073 66.6176 27.6952 72.1838 27.6952ZM73.0284 23.6733C70.5332 23.6733 68.6521 21.3369 68.6521 17.6981C68.6521 14.0593 70.5332 11.7994 73.0284 11.7994H73.3355C75.6388 11.7994 77.7117 14.0976 77.7117 17.7364C77.7117 21.3752 75.6388 23.6733 73.3355 23.6733H73.0284Z" fill="white"/>
<path d="M101.818 27.3121H96.8275V8.16061H101.818V11.9909C102.586 9.50121 104.505 7.96909 107.384 7.96909H108.344V12.5655H106.616C103.353 12.5655 101.818 14.0976 101.818 17.3533V27.3121Z" fill="white"/>
<path fill-rule="evenodd" clip-rule="evenodd" d="M153.975 18.0052C153.412 17.651 152.799 17.2944 152.141 16.9375C151.87 12.7668 149.186 8.94773 144.998 7.42665C143.026 6.71068 140.982 6.59844 139.068 6.99528C137.727 7.27354 136.449 7.80216 135.306 8.54847C134.616 8.99895 133.975 9.52874 133.398 10.1307C132.665 9.98235 131.965 9.86215 131.306 9.7725C129.722 9.55723 128.288 9.50591 127.147 9.70881C126.025 9.90825 124.908 10.414 124.496 11.5413C124.085 12.6685 124.615 13.7725 125.346 14.6449C126.09 15.5324 127.222 16.4129 128.573 17.2634C129.136 17.6176 129.749 17.9742 130.407 18.3312C132.927 19.6989 136.096 21.0714 139.561 22.3298C143.026 23.5882 146.338 24.5696 149.15 25.1379C149.883 25.2863 150.583 25.4065 151.242 25.4961C152.826 25.7114 154.26 25.7627 155.401 25.5598C156.523 25.3603 157.641 24.8546 158.052 23.7274C158.463 22.6001 157.933 21.4961 157.202 20.6237C156.458 19.7362 155.326 18.8557 153.975 18.0052ZM151.502 21.3562L151.504 21.3495C151.743 20.6955 151.915 20.0336 152.023 19.371C152.274 19.5183 152.516 19.6648 152.747 19.8103C154.008 20.6038 154.892 21.3232 155.4 21.9294C155.92 22.5506 155.878 22.834 155.844 22.9256C155.811 23.0173 155.661 23.2618 154.862 23.4038C154.082 23.5424 152.942 23.5264 151.464 23.3256C148.529 22.9265 144.593 21.8452 140.306 20.2883C136.019 18.7314 132.307 17.0351 129.801 15.4583C129.214 15.0888 128.709 14.7354 128.285 14.402C128.285 14.4019 128.285 14.4017 128.285 14.4016C127.799 14.0191 127.42 13.663 127.149 13.3393C126.628 12.718 126.671 12.4346 126.705 12.343C126.738 12.2514 126.888 12.0069 127.687 11.8648C127.853 11.8353 128.036 11.8127 128.235 11.7975C128.235 11.7976 128.235 11.7975 128.235 11.7975C128.968 11.7416 129.922 11.7851 131.084 11.943C131.354 11.9798 131.634 12.0225 131.921 12.0708C131.578 12.6459 131.284 13.2609 131.046 13.9124L131.041 13.9256C133.381 15.366 136.868 16.959 140.976 18.4509C145.084 19.9429 148.782 20.9589 151.502 21.3562Z" fill="white"/>
<path d="M138.891 24.1672C141.814 25.2288 144.668 26.1107 147.242 26.7202C144.469 28.5307 140.904 29.06 137.55 27.8419C134.197 26.6239 131.807 23.9324 130.849 20.7668C133.213 21.9509 135.968 23.1056 138.891 24.1672Z" fill="white"/>
<path d="M156.496 27.3121H160.99V16.6639C160.99 13.9826 162.794 11.9909 165.136 11.9909H165.366C167.477 11.9909 168.399 13.3315 168.399 15.8212V27.3121H173.389V16.6639C173.389 13.9826 175.193 11.9909 177.535 11.9909H177.765C179.877 11.9909 180.76 13.3315 180.76 15.8212V27.3121H185.75V15.2467C185.75 11.0333 183.907 7.77756 178.917 7.77756C176.498 7.77756 174.042 8.73514 172.583 11.0716C171.508 8.88835 169.397 7.77756 166.71 7.77756C164.56 7.77756 162.333 8.69683 160.99 10.8801V8.16059H155.999V16.9984C157.041 17.7236 157.989 18.5151 158.705 19.3696C159.575 20.4081 160.671 22.2615 159.893 24.3961C159.25 26.1588 157.751 26.9546 156.496 27.3121Z" fill="white"/>
<path d="M115.562 13.2677C115.562 15.4713 117.352 17.2576 119.56 17.2576C121.159 17.2576 122.538 16.3222 123.178 14.9702C123.392 15.3257 123.625 15.6381 123.844 15.8991C124.596 16.7977 125.605 17.6266 126.711 18.382C125.114 20.6005 122.507 22.0455 119.56 22.0455C114.702 22.0455 110.763 18.1155 110.763 13.2677C110.763 8.41987 114.702 4.48992 119.56 4.48992C122.369 4.48992 124.871 5.80334 126.481 7.84822C125.18 8.13654 123.428 8.88029 122.689 10.7829C121.957 9.86566 120.827 9.2778 119.56 9.2778C117.352 9.2778 115.562 11.0641 115.562 13.2677Z" fill="white"/>
</svg>
