<svg width="15" height="15" viewBox="0 0 15 15" fill="none" xmlns="http://www.w3.org/2000/svg">
<path d="M7.5 0C3.35625 0 0 3.35813 0 7.5C0 10.8144 2.14875 13.625 5.12812 14.6156C5.50312 14.6863 5.64062 14.4544 5.64062 14.255C5.64062 14.0769 5.63438 13.605 5.63125 12.98C3.545 13.4325 3.105 11.9738 3.105 11.9738C2.76375 11.1081 2.27062 10.8769 2.27062 10.8769C1.59125 10.4119 2.32313 10.4213 2.32313 10.4213C3.07625 10.4738 3.47187 11.1938 3.47187 11.1938C4.14062 12.3406 5.2275 12.0094 5.65625 11.8175C5.72375 11.3325 5.91688 11.0019 6.13125 10.8144C4.46563 10.6269 2.715 9.98188 2.715 7.10813C2.715 6.28938 3.00563 5.62063 3.48687 5.09563C3.4025 4.90625 3.14938 4.14375 3.5525 3.11063C3.5525 3.11063 4.18063 2.90938 5.615 3.87938C6.215 3.7125 6.8525 3.63 7.49 3.62625C8.1275 3.63 8.765 3.7125 9.365 3.87938C10.79 2.90938 11.4181 3.11063 11.4181 3.11063C11.8212 4.14375 11.5681 4.90625 11.4931 5.09563C11.9712 5.62063 12.2619 6.28938 12.2619 7.10813C12.2619 9.98938 10.5088 10.6238 8.84 10.8081C9.1025 11.0331 9.34625 11.4931 9.34625 12.1956C9.34625 13.1994 9.33688 14.0056 9.33688 14.2494C9.33688 14.4463 9.46812 14.6806 9.8525 14.6056C12.8531 13.6219 15 10.8094 15 7.5C15 3.35813 11.6419 0 7.5 0Z" fill="black" fill-opacity="0.8"/>
</svg>
