<svg width="128" height="128" viewBox="0 0 128 128" fill="none" xmlns="http://www.w3.org/2000/svg">
<rect width="128" height="128" rx="64" fill="#7000FF"/>
<path d="M33.1144 71.4411C25.2019 71.4411 18.7876 65.0268 18.7876 57.1144C18.7876 49.2019 25.2019 42.7876 33.1144 42.7876C41.0268 42.7876 47.4411 49.2019 47.4411 57.1144C47.4411 65.0268 41.0268 71.4411 33.1144 71.4411Z" stroke="white" stroke-width="11.5752"/>
<path d="M83.4002 86.0698C72.963 86.0698 64.502 77.6088 64.502 67.1716C64.502 56.7345 72.963 48.2734 83.4002 48.2734C93.8373 48.2734 102.298 56.7345 102.298 67.1716C102.298 77.6088 93.8373 86.0698 83.4002 86.0698Z" stroke="white" stroke-width="11.5752"/>
<mask id="path-4-outside-1_618_317" maskUnits="userSpaceOnUse" x="44.6929" y="42.9399" width="77" height="49" fill="black">
<rect fill="white" x="44.6929" y="42.9399" width="77" height="49"/>
<path fill-rule="evenodd" clip-rule="evenodd" d="M101.245 68.4264C101.095 69.4817 101.526 70.5309 102.345 71.214C103.099 71.8436 103.794 72.4647 104.425 73.0724C106.418 74.9902 107.544 76.5452 108.065 77.6285C108.315 78.149 108.388 78.4814 108.406 78.656C108.414 78.7412 108.41 78.7906 108.406 78.8131C108.403 78.8345 108.399 78.8434 108.397 78.8478C108.395 78.8522 108.391 78.861 108.377 78.8774C108.362 78.8947 108.328 78.9306 108.258 78.9802C108.115 79.0821 107.817 79.2459 107.26 79.3997C106.102 79.7198 104.19 79.8946 101.434 79.655C95.9375 79.1769 88.3945 77.1623 80.2939 73.4818C72.1933 69.8013 65.7143 65.445 61.7385 61.6192C59.7455 59.7014 58.6195 58.1463 58.0985 57.063C57.8482 56.5426 57.7753 56.2101 57.7581 56.0355C57.7497 55.9504 57.7541 55.9009 57.7574 55.8785C57.7606 55.8571 57.7644 55.8481 57.7664 55.8437C57.7684 55.8393 57.7727 55.8306 57.7867 55.8141C57.8014 55.7968 57.8357 55.761 57.9054 55.7113C58.0482 55.6094 58.3466 55.4457 58.9033 55.2918C60.0619 54.9717 61.9738 54.7969 64.7293 55.0366C65.6203 55.1141 66.5651 55.2319 67.5573 55.3907C68.595 55.5568 69.6551 55.2062 70.3532 54.4207V54.4207C71.8283 52.7612 71.022 50.1361 68.8382 49.7351C59.7193 48.0607 52.8401 49.0041 51.1072 52.8181C48.2717 59.059 60.2886 70.6224 77.9477 78.6458C95.6068 86.6692 112.221 88.1143 115.056 81.8734C116.785 78.0687 112.994 72.2856 105.769 66.5325C104.047 65.1616 101.557 66.2477 101.245 68.4264V68.4264Z"/>
</mask>
<path fill-rule="evenodd" clip-rule="evenodd" d="M101.245 68.4264C101.095 69.4817 101.526 70.5309 102.345 71.214C103.099 71.8436 103.794 72.4647 104.425 73.0724C106.418 74.9902 107.544 76.5452 108.065 77.6285C108.315 78.149 108.388 78.4814 108.406 78.656C108.414 78.7412 108.41 78.7906 108.406 78.8131C108.403 78.8345 108.399 78.8434 108.397 78.8478C108.395 78.8522 108.391 78.861 108.377 78.8774C108.362 78.8947 108.328 78.9306 108.258 78.9802C108.115 79.0821 107.817 79.2459 107.26 79.3997C106.102 79.7198 104.19 79.8946 101.434 79.655C95.9375 79.1769 88.3945 77.1623 80.2939 73.4818C72.1933 69.8013 65.7143 65.445 61.7385 61.6192C59.7455 59.7014 58.6195 58.1463 58.0985 57.063C57.8482 56.5426 57.7753 56.2101 57.7581 56.0355C57.7497 55.9504 57.7541 55.9009 57.7574 55.8785C57.7606 55.8571 57.7644 55.8481 57.7664 55.8437C57.7684 55.8393 57.7727 55.8306 57.7867 55.8141C57.8014 55.7968 57.8357 55.761 57.9054 55.7113C58.0482 55.6094 58.3466 55.4457 58.9033 55.2918C60.0619 54.9717 61.9738 54.7969 64.7293 55.0366C65.6203 55.1141 66.5651 55.2319 67.5573 55.3907C68.595 55.5568 69.6551 55.2062 70.3532 54.4207V54.4207C71.8283 52.7612 71.022 50.1361 68.8382 49.7351C59.7193 48.0607 52.8401 49.0041 51.1072 52.8181C48.2717 59.059 60.2886 70.6224 77.9477 78.6458C95.6068 86.6692 112.221 88.1143 115.056 81.8734C116.785 78.0687 112.994 72.2856 105.769 66.5325C104.047 65.1616 101.557 66.2477 101.245 68.4264V68.4264Z" fill="white"/>
<path d="M104.425 73.0724L108.438 68.902L108.438 68.902L104.425 73.0724ZM108.065 77.6285L113.281 75.12L113.281 75.12L108.065 77.6285ZM108.406 78.656L102.646 79.2244L102.646 79.2247L108.406 78.656ZM108.406 78.8131L114.132 79.6586L114.132 79.6582L108.406 78.8131ZM108.397 78.8478L113.665 81.2443L113.667 81.2405L108.397 78.8478ZM108.377 78.8774L112.78 82.6341L112.78 82.6332L108.377 78.8774ZM108.258 78.9802L104.898 74.268L104.898 74.2682L108.258 78.9802ZM107.26 79.3997L105.719 73.8211L105.719 73.8211L107.26 79.3997ZM101.434 79.655L100.933 85.4208L100.933 85.4208L101.434 79.655ZM80.2939 73.4818L77.8998 78.7511L77.8998 78.7511L80.2939 73.4818ZM61.7385 61.6192L57.7255 65.7896L57.7255 65.7896L61.7385 61.6192ZM58.0985 57.063L63.3143 54.5546L63.3143 54.5546L58.0985 57.063ZM57.7581 56.0355L51.9984 56.604L51.9985 56.604L57.7581 56.0355ZM57.7574 55.8785L52.032 55.0326L52.0319 55.0328L57.7574 55.8785ZM57.7664 55.8437L63.0356 58.2379L63.0357 58.2376L57.7664 55.8437ZM57.7867 55.8141L53.3837 52.0578L53.3834 52.0581L57.7867 55.8141ZM57.9054 55.7113L54.545 50.9991L54.545 50.9992L57.9054 55.7113ZM58.9033 55.2918L60.4446 60.8704L60.4447 60.8704L58.9033 55.2918ZM64.7293 55.0366L64.2278 60.8024L64.2278 60.8024L64.7293 55.0366ZM51.1072 52.8181L56.3764 55.2122L56.3764 55.2122L51.1072 52.8181ZM77.9477 78.6458L80.3417 73.3766L80.3417 73.3766L77.9477 78.6458ZM115.056 81.8734L120.326 84.2675L120.326 84.2675L115.056 81.8734ZM67.5573 55.3907L66.6427 61.1056L67.5573 55.3907ZM102.345 71.214L98.6359 75.6571L102.345 71.214ZM108.438 68.902C107.699 68.191 106.902 67.4793 106.053 66.7708L98.6359 75.6571C99.2958 76.2079 99.8879 76.7383 100.412 77.2427L108.438 68.902ZM113.281 75.12C112.351 73.1873 110.705 71.0832 108.438 68.902L100.412 77.2427C102.131 78.8972 102.737 79.9032 102.849 80.137L113.281 75.12ZM114.165 78.0877C114.066 77.0804 113.746 76.0875 113.281 75.12L102.849 80.137C102.885 80.2105 102.711 79.8824 102.646 79.2244L114.165 78.0877ZM114.132 79.6582C114.21 79.1254 114.216 78.599 114.165 78.0874L102.646 79.2247C102.612 78.8834 102.609 78.4558 102.681 77.968L114.132 79.6582ZM113.667 81.2405C113.899 80.7296 114.052 80.1983 114.132 79.6586L102.681 77.9676C102.711 77.7628 102.761 77.5052 102.846 77.2133C102.943 76.883 103.052 76.6219 103.127 76.4551L113.667 81.2405ZM112.78 82.6332C113.135 82.2181 113.434 81.7539 113.665 81.2443L103.129 76.4513C103.205 76.2855 103.329 76.0319 103.514 75.742C103.678 75.4859 103.839 75.2791 103.974 75.1216L112.78 82.6332ZM111.618 83.6925C112.037 83.3941 112.43 83.0439 112.78 82.6341L103.974 75.1207C104.294 74.7456 104.619 74.467 104.898 74.268L111.618 83.6925ZM108.802 84.9783C109.837 84.6924 110.795 84.28 111.619 83.6923L104.898 74.2682C105.436 73.8843 105.798 73.7994 105.719 73.8211L108.802 84.9783ZM100.933 85.4208C104.067 85.6934 106.735 85.5495 108.802 84.9783L105.719 73.8211C105.469 73.8902 104.313 74.0959 101.936 73.8891L100.933 85.4208ZM77.8998 78.7511C86.4361 82.6295 94.6247 84.8722 100.933 85.4208L101.936 73.8891C97.2502 73.4816 90.3529 71.6951 82.688 68.2126L77.8998 78.7511ZM57.7255 65.7896C62.2881 70.18 69.3636 74.8726 77.8998 78.7511L82.688 68.2126C75.0231 64.73 69.1406 60.71 65.7515 57.4488L57.7255 65.7896ZM52.8828 59.5715C53.8123 61.5042 55.4587 63.6083 57.7255 65.7896L65.7515 57.4488C64.0322 55.7944 63.4267 54.7884 63.3143 54.5546L52.8828 59.5715ZM51.9985 56.604C52.0979 57.6111 52.4175 58.604 52.8828 59.5715L63.3143 54.5546C63.2789 54.4811 63.4528 54.8091 63.5177 55.467L51.9985 56.604ZM52.0319 55.0328C51.9532 55.566 51.948 56.0926 51.9984 56.604L63.5177 55.467C63.5514 55.8082 63.555 56.2359 63.4829 56.7241L52.0319 55.0328ZM52.4972 53.4496C52.2641 53.9626 52.1115 54.4945 52.032 55.0326L63.4829 56.7243C63.4527 56.9287 63.403 57.186 63.3177 57.4777C63.2213 57.8079 63.1122 58.0693 63.0356 58.2379L52.4972 53.4496ZM53.3834 52.0581C53.0305 52.4718 52.7302 52.9366 52.4971 53.4498L63.0357 58.2376C62.9591 58.4063 62.8339 58.6605 62.6487 58.9502C62.4851 59.2063 62.324 59.413 62.1899 59.5702L53.3834 52.0581ZM54.545 50.9992C54.1266 51.2975 53.7334 51.6478 53.3837 52.0578L62.1896 59.5705C61.8694 59.9458 61.5449 60.2244 61.2658 60.4234L54.545 50.9992ZM57.3619 49.7133C56.3271 49.9992 55.369 50.4116 54.545 50.9991L61.2657 60.4235C60.7275 60.8073 60.3661 60.8921 60.4446 60.8704L57.3619 49.7133ZM65.2308 49.2707C62.0969 48.9982 59.4291 49.1421 57.3619 49.7133L60.4447 60.8704C60.6948 60.8013 61.8508 60.5957 64.2278 60.8024L65.2308 49.2707ZM68.4719 49.6758C67.3562 49.4973 66.2732 49.3614 65.2308 49.2707L64.2278 60.8024C64.9675 60.8668 65.7739 60.9666 66.6427 61.1056L68.4719 49.6758ZM69.8834 44.0427C64.9668 43.1399 60.244 42.8563 56.2685 43.5068C52.5102 44.1217 47.909 45.8659 45.838 50.424L56.3764 55.2122C56.0383 55.9563 55.7432 55.3218 58.1374 54.9301C60.3144 54.5739 63.5907 54.6559 67.7929 55.4276L69.8834 44.0427ZM45.838 50.424C44.1406 54.1598 45.0114 57.9676 46.4057 60.8667C47.8181 63.8034 50.1267 66.6337 52.8289 69.2339C58.273 74.4726 66.2886 79.7055 75.5536 83.9151L80.3417 73.3766C71.9477 69.5627 65.1252 65.0022 60.855 60.8931C58.7 58.8195 57.4324 57.0873 56.8372 55.8498C56.224 54.5748 56.656 54.5969 56.3764 55.2122L45.838 50.424ZM75.5536 83.9151C84.8186 88.1246 94.0326 90.7199 101.559 91.3746C105.295 91.6995 108.946 91.5767 112.087 90.7088C115.188 89.8521 118.628 88.0032 120.326 84.2675L109.787 79.4794C110.067 78.864 110.368 79.1749 109.004 79.5517C107.68 79.9174 105.542 80.102 102.562 79.8429C96.6585 79.3294 88.7358 77.1904 80.3417 73.3766L75.5536 83.9151ZM120.326 84.2675C122.392 79.7201 120.691 75.1178 118.691 71.8868C116.576 68.4712 113.27 65.1078 109.374 62.005L102.163 71.0601C105.492 73.7104 107.694 76.1151 108.849 77.9804C110.119 80.0304 109.45 80.222 109.787 79.4794L120.326 84.2675ZM109.374 62.005C103.868 57.6211 96.4077 61.3656 95.5159 67.6079L106.975 69.2449C106.706 71.1298 104.225 72.702 102.163 71.0601L109.374 62.005ZM66.6427 61.1056C69.5197 61.566 72.5941 60.6112 74.6789 58.2658L66.0275 50.5756C66.716 49.8011 67.6703 49.5476 68.4719 49.6758L66.6427 61.1056ZM74.6789 58.2658C78.9004 53.5167 76.8694 45.3255 69.8834 44.0427L67.7929 55.4276C65.1745 54.9468 64.7563 52.0058 66.0275 50.5756L74.6789 58.2658ZM106.053 66.7708C106.686 67.2985 107.124 68.2022 106.975 69.2449L95.5159 67.6079C95.0655 70.7612 96.3671 73.7633 98.6359 75.6571L106.053 66.7708Z" fill="#7000FF" mask="url(#path-4-outside-1_618_317)"/>
<mask id="mask0_618_317" style="mask-type:alpha" maskUnits="userSpaceOnUse" x="62" y="38" width="50" height="39">
<path d="M89.8002 70.8294L64.5824 59.1212C64.3283 59.0032 64.0871 58.8589 63.8629 58.6908C62.0464 57.3284 61.7169 54.7334 63.1354 52.9603L70.3732 43.913C73.3915 40.1401 78.0191 38.0205 82.8475 38.1993L86.4073 38.3312C94.6805 38.6376 102.105 43.4969 105.696 50.9562L110.725 61.4C111.395 62.7922 111.743 64.3175 111.743 65.8626V69.1637C111.743 73.4822 108.014 76.8566 103.717 76.4269C102.977 76.3529 102.252 76.166 101.568 75.8729L89.8002 70.8294Z" fill="#C4C4C4"/>
</mask>
<g mask="url(#mask0_618_317)">
<path d="M83.4006 86.0698C72.9635 86.0698 64.5025 77.6088 64.5025 67.1716C64.5025 56.7345 72.9635 48.2734 83.4006 48.2734C93.8378 48.2734 102.299 56.7345 102.299 67.1716C102.299 77.6088 93.8378 86.0698 83.4006 86.0698Z" stroke="white" stroke-width="11.5752"/>
</g>
</svg>
