<svg width="15" height="15" viewBox="0 0 15 15" fill="none" xmlns="http://www.w3.org/2000/svg">
<path d="M14.9995 4.92486C14.9995 1.67092 12.8654 0.716827 12.8654 0.716827C10.7716 -0.243957 5.21027 -0.233914 3.13651 0.716827C3.13651 0.716827 1.00245 1.67092 1.00245 4.92486C1.00245 8.79812 0.781339 13.6087 4.54023 14.603C5.89705 14.9612 7.06291 15.0382 8.00096 14.9846C9.70285 14.8909 10.6576 14.3787 10.6576 14.3787L10.6007 13.1434C10.6007 13.1434 9.38458 13.525 8.01771 13.4815C6.66424 13.4347 5.23707 13.3342 5.01596 11.6738C4.99586 11.5265 4.98581 11.3725 4.98581 11.2085C7.85355 11.9081 10.2992 11.5131 10.9726 11.4327C12.852 11.2085 14.4902 10.0502 14.698 8.99229C15.0263 7.32514 14.9995 4.92486 14.9995 4.92486ZM12.4835 9.11615H10.9223V5.2931C10.9223 3.62931 8.7782 3.5657 8.7782 5.52409V7.61639H7.22707V5.52409C7.22707 3.5657 5.08296 3.62931 5.08296 5.2931V9.11615H3.51843C3.51843 5.02864 3.34422 4.16494 4.13486 3.25771C5.00256 2.29024 6.8083 2.22663 7.61234 3.46192L8.00096 4.11472L8.38958 3.46192C9.19697 2.21993 11.0061 2.29693 11.8671 3.25771C12.6611 4.17163 12.4835 5.03198 12.4835 9.11615Z" fill="black" fill-opacity="0.8"/>
</svg>
