<svg width="15" height="15" viewBox="0 0 15 15" fill="none" xmlns="http://www.w3.org/2000/svg">
<g clip-path="url(#clip0_3097_5170)">
<path d="M0.395192 0.343269V14.6567H1.425V15H0V0H1.425V0.343269H0.395192Z" fill="black" fill-opacity="0.8"/>
<path d="M4.79721 4.8808V5.60484H4.81741C5.01067 5.32792 5.24433 5.11446 5.51548 4.96446C5.78664 4.81157 6.10106 4.73657 6.45298 4.73657C6.79048 4.73657 7.09914 4.80292 7.37894 4.93273C7.65875 5.06253 7.86933 5.29619 8.01644 5.62503C8.1751 5.39138 8.39144 5.18369 8.6626 5.00484C8.93375 4.826 9.25683 4.73657 9.62894 4.73657C9.91164 4.73657 10.1741 4.77119 10.4164 4.84042C10.6588 4.90965 10.8636 5.01926 11.0366 5.17215C11.2097 5.32503 11.3424 5.52119 11.4405 5.76638C11.5357 6.01157 11.5847 6.3058 11.5847 6.65196V10.2318H10.1164V7.20003C10.1164 7.02119 10.1107 6.851 10.0963 6.69234C10.0818 6.53369 10.0443 6.39523 9.98375 6.27984C9.92029 6.16157 9.83087 6.06926 9.70971 6.00003C9.58856 5.9308 9.42414 5.89619 9.21933 5.89619C9.01164 5.89619 8.84433 5.93657 8.71741 6.01446C8.59048 6.09523 8.48952 6.19619 8.4174 6.326C8.34529 6.45292 8.29625 6.59715 8.27317 6.76157C8.2501 6.92311 8.23567 7.08753 8.23567 7.25196V10.2318H6.76741V7.23176C6.76741 7.07311 6.76452 6.91734 6.75587 6.76157C6.7501 6.6058 6.71837 6.46446 6.66644 6.33176C6.61452 6.20196 6.52798 6.09523 6.40683 6.01734C6.28567 5.93946 6.10971 5.89907 5.87317 5.89907C5.80394 5.89907 5.71164 5.9135 5.59914 5.94523C5.48664 5.97696 5.37414 6.03465 5.26741 6.12119C5.16067 6.20773 5.06837 6.33176 4.99337 6.4933C4.91837 6.65484 4.88087 6.8683 4.88087 7.1308V10.2346H3.4126V4.8808H4.79721Z" fill="black" fill-opacity="0.8"/>
<path d="M14.6048 14.6567V0.343269H13.575V0H15V15H13.575V14.6567H14.6048Z" fill="black" fill-opacity="0.8"/>
</g>
<defs>
<clipPath id="clip0_3097_5170">
<rect width="15" height="15" fill="white"/>
</clipPath>
</defs>
</svg>
