<svg width="18" height="15" viewBox="0 0 18 15" fill="none" xmlns="http://www.w3.org/2000/svg">
<path d="M17.9648 1.74218C17.301 2.03392 16.5923 2.23266 15.8461 2.3234C16.6066 1.86517 17.1915 1.14295 17.4683 0.281238C16.7551 0.697471 15.9646 1.00046 15.1231 1.1692C14.4511 0.449981 13.4934 0 12.43 0C10.3923 0 8.74014 1.65218 8.74014 3.6876C8.74014 3.98009 8.77388 4.26132 8.83538 4.53056C5.76801 4.38582 3.04937 2.91288 1.22995 0.686222C0.909712 1.2277 0.73047 1.85692 0.73047 2.54239C0.73047 3.82484 1.38294 4.95204 2.3714 5.61427C1.76618 5.59477 1.19695 5.42828 0.700471 5.15229V5.19803C0.700471 6.98671 1.97017 8.4784 3.65985 8.81813C3.35011 8.90138 3.02312 8.94638 2.68789 8.94638C2.4524 8.94638 2.22666 8.92388 2.00092 8.88188C2.47415 10.3466 3.83459 11.4145 5.45377 11.4445C4.19383 12.4337 2.59714 13.0232 0.877463 13.0232C0.584976 13.0232 0.293238 13.006 0 12.973C1.64168 14.0184 3.57585 14.6296 5.66751 14.6296C12.4577 14.6296 16.1663 9.00788 16.1663 4.14058C16.1663 3.98383 16.1663 3.82559 16.1551 3.6681C16.8758 3.15137 17.505 2.49815 18 1.75718L17.9648 1.74218Z" fill="#1F1F1F" fill-opacity="0.8"/>
</svg>
