<svg width="15" height="15" viewBox="0 0 15 15" fill="none" xmlns="http://www.w3.org/2000/svg">
<path d="M14.9706 3.45181C14.4175 3.69493 13.8269 3.86055 13.2051 3.93617C13.8388 3.55431 14.3263 2.95246 14.5569 2.23437C13.9625 2.58123 13.3038 2.83372 12.6026 2.97433C12.0426 2.37498 11.2445 2 10.3583 2C8.66026 2 7.28345 3.37682 7.28345 5.073C7.28345 5.31674 7.31157 5.5511 7.36282 5.77547C4.80667 5.65485 2.54114 4.4274 1.02496 2.57185C0.758093 3.02308 0.608725 3.54744 0.608725 4.11866C0.608725 5.18737 1.15245 6.1267 1.97617 6.67856C1.47181 6.66231 0.997458 6.52356 0.583726 6.29357V6.3317C0.583726 7.82226 1.64181 9.06533 3.04987 9.34844C2.79176 9.41782 2.51927 9.45531 2.23991 9.45531C2.04366 9.45531 1.85555 9.43657 1.66743 9.40157C2.06179 10.6221 3.19549 11.5121 4.54481 11.5371C3.49485 12.3614 2.16428 12.8527 0.731219 12.8527C0.48748 12.8527 0.244365 12.8383 0 12.8108C1.36807 13.682 2.97988 14.1914 4.72293 14.1914C10.3814 14.1914 13.4719 9.50656 13.4719 5.45048C13.4719 5.31986 13.4719 5.18799 13.4626 5.05675C14.0632 4.62614 14.5875 4.08179 15 3.46431L14.9706 3.45181Z" fill="black" fill-opacity="0.8"/>
</svg>
