<svg width="24" height="24" viewBox="0 0 24 24" fill="none" xmlns="http://www.w3.org/2000/svg">
<mask id="mask0_3285_5204" style="mask-type:alpha" maskUnits="userSpaceOnUse" x="0" y="0" width="24" height="24">
<rect width="24" height="24" fill="#D9D9D9"/>
</mask>
<g mask="url(#mask0_3285_5204)">
<path d="M5 22C4.16667 22 3.45833 21.7083 2.875 21.125C2.29167 20.5417 2 19.8333 2 19C2 18.35 2.1875 17.7708 2.5625 17.2625C2.9375 16.7542 3.41667 16.3917 4 16.175V7.825C3.41667 7.60833 2.9375 7.24583 2.5625 6.7375C2.1875 6.22917 2 5.65 2 5C2 4.16667 2.29167 3.45833 2.875 2.875C3.45833 2.29167 4.16667 2 5 2C5.65 2 6.22917 2.1875 6.7375 2.5625C7.24583 2.9375 7.60833 3.41667 7.825 4H16.175C16.375 3.41667 16.7292 2.9375 17.2375 2.5625C17.7458 2.1875 18.3333 2 19 2C19.8333 2 20.5417 2.29167 21.125 2.875C21.7083 3.45833 22 4.16667 22 5C22 5.66667 21.8125 6.25417 21.4375 6.7625C21.0625 7.27083 20.5833 7.625 20 7.825V16.175C20.5833 16.3917 21.0625 16.7542 21.4375 17.2625C21.8125 17.7708 22 18.35 22 19C22 19.8333 21.7083 20.5417 21.125 21.125C20.5417 21.7083 19.8333 22 19 22C18.35 22 17.7708 21.8125 17.2625 21.4375C16.7542 21.0625 16.3917 20.5833 16.175 20H7.825C7.60833 20.5833 7.24583 21.0625 6.7375 21.4375C6.22917 21.8125 5.65 22 5 22ZM5 6C5.28333 6 5.52083 5.90417 5.7125 5.7125C5.90417 5.52083 6 5.28333 6 5C6 4.71667 5.90417 4.47917 5.7125 4.2875C5.52083 4.09583 5.28333 4 5 4C4.71667 4 4.47917 4.09583 4.2875 4.2875C4.09583 4.47917 4 4.71667 4 5C4 5.28333 4.09583 5.52083 4.2875 5.7125C4.47917 5.90417 4.71667 6 5 6ZM19 6C19.2833 6 19.5208 5.90417 19.7125 5.7125C19.9042 5.52083 20 5.28333 20 5C20 4.71667 19.9042 4.47917 19.7125 4.2875C19.5208 4.09583 19.2833 4 19 4C18.7167 4 18.4792 4.09583 18.2875 4.2875C18.0958 4.47917 18 4.71667 18 5C18 5.28333 18.0958 5.52083 18.2875 5.7125C18.4792 5.90417 18.7167 6 19 6ZM7.825 18H16.175C16.325 17.5667 16.5583 17.1917 16.875 16.875C17.1917 16.5583 17.5667 16.325 18 16.175V7.825C17.5667 7.675 17.1917 7.44167 16.875 7.125C16.5583 6.80833 16.325 6.43333 16.175 6H7.825C7.675 6.43333 7.44167 6.80833 7.125 7.125C6.80833 7.44167 6.43333 7.675 6 7.825V16.175C6.43333 16.325 6.80833 16.5583 7.125 16.875C7.44167 17.1917 7.675 17.5667 7.825 18ZM19 20C19.2833 20 19.5208 19.9042 19.7125 19.7125C19.9042 19.5208 20 19.2833 20 19C20 18.7167 19.9042 18.4792 19.7125 18.2875C19.5208 18.0958 19.2833 18 19 18C18.7167 18 18.4792 18.0958 18.2875 18.2875C18.0958 18.4792 18 18.7167 18 19C18 19.2833 18.0958 19.5208 18.2875 19.7125C18.4792 19.9042 18.7167 20 19 20ZM5 20C5.28333 20 5.52083 19.9042 5.7125 19.7125C5.90417 19.5208 6 19.2833 6 19C6 18.7167 5.90417 18.4792 5.7125 18.2875C5.52083 18.0958 5.28333 18 5 18C4.71667 18 4.47917 18.0958 4.2875 18.2875C4.09583 18.4792 4 18.7167 4 19C4 19.2833 4.09583 19.5208 4.2875 19.7125C4.47917 19.9042 4.71667 20 5 20Z" fill="black"/>
</g>
</svg>
