<svg width="20" height="20" viewBox="0 0 15 15" fill="none" xmlns="http://www.w3.org/2000/svg">
<path d="M11.875 1.875H3.125C2.43125 1.875 1.875 2.4375 1.875 3.125V11.875C1.875 12.5625 2.43125 13.125 3.125 13.125H11.875C12.5625 13.125 13.125 12.5625 13.125 11.875V3.125C13.125 2.4375 12.5625 1.875 11.875 1.875ZM10 8.125H8.125V10C8.125 10.3438 7.84375 10.625 7.5 10.625C7.15625 10.625 6.875 10.3438 6.875 10V8.125H5C4.65625 8.125 4.375 7.84375 4.375 7.5C4.375 7.15625 4.65625 6.875 5 6.875H6.875V5C6.875 4.65625 7.15625 4.375 7.5 4.375C7.84375 4.375 8.125 4.65625 8.125 5V6.875H10C10.3438 6.875 10.625 7.15625 10.625 7.5C10.625 7.84375 10.3438 8.125 10 8.125Z" fill="#1F1F1F"/>
</svg>
