<svg width="20" height="20" viewBox="0 0 20 20" fill="none" xmlns="http://www.w3.org/2000/svg">
<path d="M15.7435 7.56013C15.4283 7.56013 15.1729 7.30896 15.1729 6.99913V4.75522H12.8905C12.5753 4.75522 12.3198 4.50405 12.3198 4.19422C12.3198 3.88439 12.5753 3.63322 12.8905 3.63322H15.1729V1.38913C15.1729 1.07929 15.4283 0.828125 15.7435 0.828125C16.0586 0.828125 16.3141 1.07929 16.3141 1.38913V3.63322H18.5967C18.9118 3.63322 19.1673 3.88439 19.1673 4.19422C19.1673 4.50405 18.9118 4.75522 18.5967 4.75522H16.3141V6.99913C16.3141 7.30896 16.0586 7.56013 15.7435 7.56013Z" fill="white"/>
<path fill-rule="evenodd" clip-rule="evenodd" d="M16.2508 9.58596C16.5797 9.58596 16.9015 9.55611 17.2135 9.49904C17.2927 9.95798 17.334 10.4299 17.334 10.9115C17.334 15.4678 13.6403 19.1615 9.08398 19.1615C4.52763 19.1615 0.833984 15.4678 0.833984 10.9115C0.833984 6.35511 4.52763 2.66146 9.08398 2.66146C9.8317 2.66146 10.5562 2.76093 11.2449 2.94736C11.0987 3.42077 11.0201 3.92309 11.0201 4.44346C11.0201 7.28358 13.362 9.58596 16.2508 9.58596ZM9.27629 17.8825C11.0779 17.8825 12.7133 17.183 13.9167 16.0451C13.1622 14.2255 11.3687 12.9458 9.2763 12.9458C7.18389 12.9458 5.39039 14.2256 4.63586 16.0451C5.83934 17.183 7.47472 17.8825 9.27629 17.8825ZM9.40057 6.50952C8.15777 6.62104 7.18427 7.64841 7.18427 8.89932C7.18427 10.2247 8.27714 11.2992 9.62527 11.2992C10.5236 11.2992 11.3086 10.822 11.7324 10.1115C10.5552 9.24767 9.70578 7.97605 9.40057 6.50952Z" fill="white"/>
</svg>
