<svg width="20" height="20" viewBox="0 0 20 20" fill="none" xmlns="http://www.w3.org/2000/svg">
<path d="M14.9998 10.8333H10.8332V15C10.8332 15.4583 10.4582 15.8333 9.99984 15.8333C9.5415 15.8333 9.1665 15.4583 9.1665 15V10.8333H4.99984C4.5415 10.8333 4.1665 10.4583 4.1665 10C4.1665 9.54167 4.5415 9.16667 4.99984 9.16667H9.1665V5C9.1665 4.54167 9.5415 4.16667 9.99984 4.16667C10.4582 4.16667 10.8332 4.54167 10.8332 5V9.16667H14.9998C15.4582 9.16667 15.8332 9.54167 15.8332 10C15.8332 10.4583 15.4582 10.8333 14.9998 10.8333Z" fill="#1F1F1F"/>
</svg>
