<svg width="24" height="24" viewBox="0 0 24 24" fill="none" xmlns="http://www.w3.org/2000/svg">
<mask id="mask0_3279_5204" style="mask-type:alpha" maskUnits="userSpaceOnUse" x="0" y="0" width="24" height="24">
<rect width="24" height="24" fill="#D9D9D9"/>
</mask>
<g mask="url(#mask0_3279_5204)">
<path d="M13 24C11.2833 24 9.71667 23.5208 8.3 22.5625C6.88333 21.6042 5.85833 20.325 5.225 18.725L2.675 12.3C2.60833 12.1333 2.5625 11.9792 2.5375 11.8375C2.5125 11.6958 2.5 11.5333 2.5 11.35C2.5 10.85 2.69167 10.4083 3.075 10.025C3.45833 9.64167 3.9 9.45 4.4 9.45C4.51667 9.45 4.62083 9.45417 4.7125 9.4625C4.80417 9.47083 4.9 9.49167 5 9.525L5.775 9.725C6.00833 9.79167 6.225 9.87917 6.425 9.9875C6.625 10.0958 6.81667 10.2333 7 10.4V4.5C7 3.8 7.24167 3.20833 7.725 2.725C8.20833 2.24167 8.8 2 9.5 2C9.6 2 9.69583 2.00417 9.7875 2.0125C9.87917 2.02083 9.96667 2.03333 10.05 2.05C10.15 1.41667 10.4375 0.916667 10.9125 0.55C11.3875 0.183333 11.9167 0 12.5 0C13.0333 0 13.5083 0.145833 13.925 0.4375C14.3417 0.729167 14.6417 1.11667 14.825 1.6C14.9417 1.56667 15.0542 1.54167 15.1625 1.525C15.2708 1.50833 15.3833 1.5 15.5 1.5C16.2 1.5 16.7917 1.74167 17.275 2.225C17.7583 2.70833 18 3.3 18 4V4.55C18.0833 4.53333 18.1667 4.52083 18.25 4.5125C18.3333 4.50417 18.4167 4.5 18.5 4.5C19.2 4.5 19.7917 4.74167 20.275 5.225C20.7583 5.70833 21 6.3 21 7V16C21 18.2333 20.225 20.125 18.675 21.675C17.125 23.225 15.2333 24 13 24ZM13 22C14.6667 22 16.0833 21.4167 17.25 20.25C18.4167 19.0833 19 17.6667 19 16V7C19 6.86667 18.95 6.75 18.85 6.65C18.75 6.55 18.6333 6.5 18.5 6.5C18.3667 6.5 18.25 6.55 18.15 6.65C18.05 6.75 18 6.86667 18 7V12H16V4C16 3.86667 15.95 3.75 15.85 3.65C15.75 3.55 15.6333 3.5 15.5 3.5C15.3667 3.5 15.25 3.55 15.15 3.65C15.05 3.75 15 3.86667 15 4V12H13V2.5C13 2.36667 12.95 2.25 12.85 2.15C12.75 2.05 12.6333 2 12.5 2C12.3667 2 12.25 2.05 12.15 2.15C12.05 2.25 12 2.36667 12 2.5V12H10V4.5C10 4.36667 9.95 4.25 9.85 4.15C9.75 4.05 9.63333 4 9.5 4C9.36667 4 9.25 4.05 9.15 4.15C9.05 4.25 9 4.36667 9 4.5V15H7L6.025 12.5C5.90833 12.2167 5.74583 12.0083 5.5375 11.875C5.32917 11.7417 4.98333 11.6 4.5 11.45L7.1 18C7.58333 19.2 8.3625 20.1667 9.4375 20.9C10.5125 21.6333 11.7 22 13 22Z" fill="#1C1B1F"/>
</g>
</svg>
