<svg width="20" height="20" viewBox="0 0 20 20" fill="none" xmlns="http://www.w3.org/2000/svg">
<path d="M4.99984 16.2498C4.99984 17.2385 5.74984 18.3332 6.6665 18.3332H13.3332C14.2498 18.3332 14.9998 17.0355 14.9998 16.0468V7.05912C14.9998 6.07048 14.2498 5.26158 13.3332 5.26158H6.6665C5.74984 5.26158 4.99984 6.07048 4.99984 7.05912V16.2498ZM14.9998 2.56527H12.9165L12.3248 1.92715C12.1748 1.76537 11.9582 1.6665 11.7415 1.6665H8.25817C8.0415 1.6665 7.82484 1.76537 7.67484 1.92715L7.08317 2.56527H4.99984C4.5415 2.56527 4.1665 2.96972 4.1665 3.46404C4.1665 3.95837 4.5415 4.36281 4.99984 4.36281H14.9998C15.4582 4.36281 15.8332 3.95837 15.8332 3.46404C15.8332 2.96972 15.4582 2.56527 14.9998 2.56527Z" fill="#000000"/>
</svg>
