<svg width="24" height="24" viewBox="0 0 24 24" fill="none" xmlns="http://www.w3.org/2000/svg">
<mask id="mask0_3279_5267" style="mask-type:alpha" maskUnits="userSpaceOnUse" x="0" y="0" width="24" height="24">
<rect width="24" height="24" fill="#D9D9D9"/>
</mask>
<g mask="url(#mask0_3279_5267)">
<path d="M3 21V19H21V21H3ZM3 17V15H5V17H3ZM11 17V15H13V17H11ZM19 17V15H21V17H19ZM3 13V11H5V13H3ZM7 13V11H9V13H7ZM11 13V11H13V13H11ZM15 13V11H17V13H15ZM19 13V11H21V13H19ZM3 9V7H5V9H3ZM11 9V7H13V9H11ZM19 9V7H21V9H19ZM3 5V3H5V5H3ZM7 5V3H9V5H7ZM11 5V3H13V5H11ZM15 5V3H17V5H15ZM19 5V3H21V5H19Z" fill="black"/>
</g>
</svg>
