<svg width="20" height="20" viewBox="0 0 20 20" fill="none" xmlns="http://www.w3.org/2000/svg">
<path d="M6.68916 13.301C7.64002 14.3277 9.92904 16.1053 10.5529 16.4701C10.5898 16.4916 10.6321 16.5167 10.6793 16.5448C11.6313 17.1108 14.6144 18.8841 16.7879 17.2245C18.4718 15.9388 17.9242 14.4924 17.3575 14.0625C16.9694 13.7607 15.8262 12.9287 14.7505 12.1793C13.6943 11.4435 13.1057 12.0331 12.7077 12.4317C12.7003 12.439 12.6931 12.4463 12.6859 12.4535L11.8851 13.2543C11.6812 13.4582 11.371 13.3838 11.0738 13.1504C10.0077 12.3384 9.22342 11.5549 8.83103 11.1625L8.82773 11.1592C8.4354 10.7669 7.66157 9.9923 6.84965 8.92616C6.61625 8.62904 6.54183 8.31883 6.74575 8.1149L7.54656 7.3141C7.55375 7.30691 7.56101 7.29966 7.56833 7.29235C7.96696 6.89434 8.55651 6.3057 7.82067 5.24947C7.0713 4.17383 6.23934 3.03058 5.93751 2.64255C5.50757 2.07578 4.06122 1.52826 2.77547 3.21214C1.1159 5.38561 2.88924 8.36867 3.45518 9.32068C3.48327 9.36793 3.50838 9.41017 3.52995 9.44707C3.89473 10.071 5.66257 12.3502 6.68916 13.301Z" fill="black"/>
<path d="M18.5355 2.64298L17.357 1.46447L15 3.82147L12.643 1.46447L11.4645 2.64298L13.8215 4.99998L11.4645 7.35702L12.643 8.53553L15 6.17849L17.357 8.53553L18.5355 7.35702L16.1785 4.99998L18.5355 2.64298Z" fill="black"/>
</svg>
