<svg width="20" height="20" viewBox="0 0 20 20" fill="none" xmlns="http://www.w3.org/2000/svg">
<path fill-rule="evenodd" clip-rule="evenodd" d="M4.66797 2.66602C3.5634 2.66602 2.66797 3.56145 2.66797 4.66602V11.166C2.66797 12.2706 3.5634 13.166 4.66797 13.166H6.83464V15.3327C6.83464 16.4373 7.73007 17.3327 8.83464 17.3327H15.3346C16.4392 17.3327 17.3346 16.4372 17.3346 15.3327V8.83268C17.3346 7.72811 16.4392 6.83268 15.3346 6.83268H13.168V4.66602C13.168 3.56145 12.2725 2.66602 11.168 2.66602H4.66797ZM11.8346 6.83268V4.66602C11.8346 4.29783 11.5362 3.99935 11.168 3.99935H4.66797C4.29978 3.99935 4.0013 4.29783 4.0013 4.66602V11.166C4.0013 11.5342 4.29978 11.8327 4.66797 11.8327H6.83464V8.83268C6.83464 7.72812 7.73006 6.83268 8.83464 6.83268H11.8346ZM8.16797 8.83268C8.16797 8.46449 8.46645 8.16602 8.83464 8.16602H15.3346C15.7028 8.16602 16.0013 8.46449 16.0013 8.83268V15.3327C16.0013 15.7009 15.7028 15.9993 15.3346 15.9993H8.83464C8.46645 15.9993 8.16797 15.7009 8.16797 15.3327V8.83268Z" fill="black"/>
</svg>
