<svg width="20" height="20" viewBox="0 0 15 15" fill="none" xmlns="http://www.w3.org/2000/svg">
<path d="M7.5 1.25C4.04375 1.25 1.25 4.04375 1.25 7.5C1.25 10.9563 4.04375 13.75 7.5 13.75C10.9563 13.75 13.75 10.9563 13.75 7.5C13.75 4.04375 10.9563 1.25 7.5 1.25ZM10.1875 10.1875C9.94375 10.4312 9.55 10.4312 9.30625 10.1875L7.5 8.38125L5.69375 10.1875C5.45 10.4312 5.05625 10.4312 4.8125 10.1875C4.56875 9.94375 4.56875 9.55 4.8125 9.30625L6.61875 7.5L4.8125 5.69375C4.56875 5.45 4.56875 5.05625 4.8125 4.8125C5.05625 4.56875 5.45 4.56875 5.69375 4.8125L7.5 6.61875L9.30625 4.8125C9.55 4.56875 9.94375 4.56875 10.1875 4.8125C10.4312 5.05625 10.4312 5.45 10.1875 5.69375L8.38125 7.5L10.1875 9.30625C10.425 9.54375 10.425 9.94375 10.1875 10.1875Z" fill="#1F1F1F"/>
</svg>
