<svg width="20" height="20" viewBox="0 0 20 20" fill="none" xmlns="http://www.w3.org/2000/svg">
<path d="M4.41411 12.2582C4.42439 12.1932 4.45369 12.1327 4.4983 12.0843L14.0061 1.77387C14.1309 1.63853 14.3418 1.62999 14.4771 1.75479L16.4375 3.56256C16.5728 3.68736 16.5814 3.89824 16.4566 4.03358L6.94878 14.344C6.90416 14.3924 6.84623 14.4265 6.78227 14.442L4.44619 15.0084C4.21502 15.0644 4.00124 14.8672 4.03841 14.6323L4.41411 12.2582Z" fill="#000000"/>
<path d="M2.9165 15.7389C2.22615 15.7389 1.6665 16.2986 1.6665 16.9889C1.6665 17.6793 2.22615 18.2389 2.9165 18.2389L17.9165 18.2389C18.6069 18.2389 19.1665 17.6793 19.1665 16.9889C19.1665 16.2986 18.6069 15.7389 17.9165 15.7389L2.9165 15.7389Z" fill="#000000"/>
</svg>
