<svg width="20" height="20" viewBox="0 0 20 20" fill="none" xmlns="http://www.w3.org/2000/svg">
<path d="M9.99175 1.66679C5.39175 1.66679 1.66675 5.40013 1.66675 10.0001C1.66675 14.6001 5.39175 18.3335 9.99175 18.3335C14.6001 18.3335 18.3334 14.6001 18.3334 10.0001C18.3334 5.40013 14.6001 1.66679 9.99175 1.66679ZM7.08341 6.66679C7.77508 6.66679 8.33342 7.22513 8.33342 7.91679C8.33342 8.60846 7.77508 9.16679 7.08341 9.16679C6.39175 9.16679 5.83341 8.60846 5.83341 7.91679C5.83341 7.22513 6.39175 6.66679 7.08341 6.66679ZM10.0001 15.0001C8.10008 15.0001 6.48341 13.6168 5.83341 11.6668H14.1667C13.5167 13.6168 11.9001 15.0001 10.0001 15.0001ZM12.9167 9.16679C12.2251 9.16679 11.6667 8.60846 11.6667 7.91679C11.6667 7.22513 12.2251 6.66679 12.9167 6.66679C13.6084 6.66679 14.1667 7.22513 14.1667 7.91679C14.1667 8.60846 13.6084 9.16679 12.9167 9.16679Z" fill="#1F1F1F"/>
</svg>
