<svg width="20" height="20" viewBox="0 0 20 20" fill="none" xmlns="http://www.w3.org/2000/svg">
<path d="M9.99935 9.08073C9.49102 9.08073 9.08268 9.48906 9.08268 9.9974C9.08268 10.5057 9.49102 10.9141 9.99935 10.9141C10.5077 10.9141 10.916 10.5057 10.916 9.9974C10.916 9.48906 10.5077 9.08073 9.99935 9.08073ZM9.99935 1.66406C5.39935 1.66406 1.66602 5.3974 1.66602 9.9974C1.66602 14.5974 5.39935 18.3307 9.99935 18.3307C14.5993 18.3307 18.3327 14.5974 18.3327 9.9974C18.3327 5.3974 14.5993 1.66406 9.99935 1.66406ZM11.8243 11.8224L4.99935 14.9974L8.17435 8.1724L14.9993 4.9974L11.8243 11.8224Z" fill="#000000"/>
</svg>
