<svg width="24" height="24" viewBox="0 0 24 24" fill="none" xmlns="http://www.w3.org/2000/svg">
<mask id="mask0_3279_5264" style="mask-type:alpha" maskUnits="userSpaceOnUse" x="0" y="0" width="24" height="24">
<rect width="24" height="24" fill="#D9D9D9"/>
</mask>
<g mask="url(#mask0_3279_5264)">
<path d="M5 21C4.45 21 3.97917 20.8042 3.5875 20.4125C3.19583 20.0208 3 19.55 3 19V15H5V19H9V21H5ZM15 21V19H19V15H21V19C21 19.55 20.8042 20.0208 20.4125 20.4125C20.0208 20.8042 19.55 21 19 21H15ZM12 15C11.1667 15 10.4583 14.7083 9.875 14.125C9.29167 13.5417 9 12.8333 9 12C9 11.1667 9.29167 10.4583 9.875 9.875C10.4583 9.29167 11.1667 9 12 9C12.8333 9 13.5417 9.29167 14.125 9.875C14.7083 10.4583 15 11.1667 15 12C15 12.8333 14.7083 13.5417 14.125 14.125C13.5417 14.7083 12.8333 15 12 15ZM12 13C12.2833 13 12.5208 12.9042 12.7125 12.7125C12.9042 12.5208 13 12.2833 13 12C13 11.7167 12.9042 11.4792 12.7125 11.2875C12.5208 11.0958 12.2833 11 12 11C11.7167 11 11.4792 11.0958 11.2875 11.2875C11.0958 11.4792 11 11.7167 11 12C11 12.2833 11.0958 12.5208 11.2875 12.7125C11.4792 12.9042 11.7167 13 12 13ZM3 9V5C3 4.45 3.19583 3.97917 3.5875 3.5875C3.97917 3.19583 4.45 3 5 3H9V5H5V9H3ZM19 9V5H15V3H19C19.55 3 20.0208 3.19583 20.4125 3.5875C20.8042 3.97917 21 4.45 21 5V9H19Z" fill="black"/>
</g>
</svg>
