<svg width="16" height="16" viewBox="0 0 16 16" fill="none" xmlns="http://www.w3.org/2000/svg">
<path d="M2.85 8.83333C2.61667 8.83333 2.41667 8.75278 2.25 8.59167C2.08333 8.43056 2 8.23333 2 8C2 7.76667 2.08333 7.56944 2.25 7.40833C2.41667 7.24722 2.61667 7.16667 2.85 7.16667C3.07222 7.16667 3.26389 7.25 3.425 7.41667C3.58611 7.58333 3.66667 7.77778 3.66667 8C3.66667 8.22222 3.58611 8.41667 3.425 8.58333C3.26389 8.75 3.07222 8.83333 2.85 8.83333ZM2.83333 4.66667C2.6 4.66667 2.40278 4.58611 2.24167 4.425C2.08056 4.26389 2 4.06667 2 3.83333C2 3.6 2.08056 3.40278 2.24167 3.24167C2.40278 3.08056 2.6 3 2.83333 3C3.06667 3 3.26389 3.08056 3.425 3.24167C3.58611 3.40278 3.66667 3.6 3.66667 3.83333C3.66667 4.06667 3.58611 4.26389 3.425 4.425C3.26389 4.58611 3.06667 4.66667 2.83333 4.66667ZM2.85 13C2.61667 13 2.41667 12.9194 2.25 12.7583C2.08333 12.5972 2 12.4056 2 12.1833C2 11.95 2.08333 11.75 2.25 11.5833C2.41667 11.4167 2.61667 11.3333 2.85 11.3333C3.07222 11.3333 3.26389 11.4167 3.425 11.5833C3.58611 11.75 3.66667 11.95 3.66667 12.1833C3.66667 12.4056 3.58611 12.5972 3.425 12.7583C3.26389 12.9194 3.07222 13 2.85 13ZM5.83333 12.6667C5.68889 12.6667 5.56944 12.6194 5.475 12.525C5.38056 12.4306 5.33333 12.3111 5.33333 12.1667C5.33333 12.0222 5.38056 11.9028 5.475 11.8083C5.56944 11.7139 5.68889 11.6667 5.83333 11.6667H13.5C13.6444 11.6667 13.7639 11.7139 13.8583 11.8083C13.9528 11.9028 14 12.0222 14 12.1667C14 12.3111 13.9528 12.4306 13.8583 12.525C13.7639 12.6194 13.6444 12.6667 13.5 12.6667H5.83333ZM5.83333 8.5C5.68889 8.5 5.56944 8.45278 5.475 8.35833C5.38056 8.26389 5.33333 8.14444 5.33333 8C5.33333 7.85556 5.38056 7.73611 5.475 7.64167C5.56944 7.54722 5.68889 7.5 5.83333 7.5H13.5C13.6444 7.5 13.7639 7.54722 13.8583 7.64167C13.9528 7.73611 14 7.85556 14 8C14 8.14444 13.9528 8.26389 13.8583 8.35833C13.7639 8.45278 13.6444 8.5 13.5 8.5H5.83333ZM5.83333 4.33333C5.68889 4.33333 5.56944 4.28611 5.475 4.19167C5.38056 4.09722 5.33333 3.97778 5.33333 3.83333C5.33333 3.68889 5.38056 3.56944 5.475 3.475C5.56944 3.38056 5.68889 3.33333 5.83333 3.33333H13.5C13.6444 3.33333 13.7639 3.38056 13.8583 3.475C13.9528 3.56944 14 3.68889 14 3.83333C14 3.97778 13.9528 4.09722 13.8583 4.19167C13.7639 4.28611 13.6444 4.33333 13.5 4.33333H5.83333Z" fill="#0B1014"/>
</svg>
