<svg width="20" height="20" viewBox="0 0 20 20" fill="none" xmlns="http://www.w3.org/2000/svg">
<path d="M4.16667 9.16667H7.5C8.41667 9.16667 9.16667 8.41667 9.16667 7.5V4.16667C9.16667 3.25 8.41667 2.5 7.5 2.5H4.16667C3.25 2.5 2.5 3.25 2.5 4.16667V7.5C2.5 8.41667 3.25 9.16667 4.16667 9.16667Z" fill="white"/>
<path d="M4.16667 17.5001H7.5C8.41667 17.5001 9.16667 16.7501 9.16667 15.8334V12.5001C9.16667 11.5834 8.41667 10.8334 7.5 10.8334H4.16667C3.25 10.8334 2.5 11.5834 2.5 12.5001V15.8334C2.5 16.7501 3.25 17.5001 4.16667 17.5001Z" fill="white"/>
<path d="M10.8335 4.16667V7.5C10.8335 8.41667 11.5835 9.16667 12.5002 9.16667H15.8335C16.7502 9.16667 17.5002 8.41667 17.5002 7.5V4.16667C17.5002 3.25 16.7502 2.5 15.8335 2.5H12.5002C11.5835 2.5 10.8335 3.25 10.8335 4.16667Z" fill="white"/>
<path d="M12.5002 17.5001H15.8335C16.7502 17.5001 17.5002 16.7501 17.5002 15.8334V12.5001C17.5002 11.5834 16.7502 10.8334 15.8335 10.8334H12.5002C11.5835 10.8334 10.8335 11.5834 10.8335 12.5001V15.8334C10.8335 16.7501 11.5835 17.5001 12.5002 17.5001Z" fill="white"/>
</svg>
