<svg width="20" height="20" viewBox="0 0 20 20" fill="none" xmlns="http://www.w3.org/2000/svg">
<path d="M12.9547 10.8333H15.8333V10C15.8333 6.775 13.225 4.16667 10 4.16667C8.93268 4.16667 7.93291 4.45235 7.07287 4.95153L5.86408 3.74274C7.04975 2.95739 8.47153 2.5 10 2.5C14.1417 2.5 17.5 5.85833 17.5 10V15.3787L12.9547 10.8333Z" fill="black"/>
<path d="M3.74276 5.86406C2.95739 7.04974 2.5 8.47152 2.5 10V15.8333C2.5 16.75 3.25 17.5 4.16667 17.5H7.5V10.8333H4.16667V10C4.16667 8.93267 4.45236 7.93289 4.95154 7.07285L12.5 14.6213V17.5H15.3787L16.0104 18.1317L17.0711 17.0711L2.92895 2.92893L1.86829 3.98959L3.74276 5.86406Z" fill="black"/>
</svg>
