<svg width="20" height="20" viewBox="0 0 20 20" fill="none" xmlns="http://www.w3.org/2000/svg">
<path d="M10.0832 14.8542C10.3054 14.8542 10.4929 14.7778 10.6457 14.625C10.7984 14.4722 10.8748 14.2847 10.8748 14.0625C10.8748 13.8403 10.7984 13.6528 10.6457 13.5C10.4929 13.3472 10.3054 13.2708 10.0832 13.2708C9.86095 13.2708 9.67345 13.3472 9.52067 13.5C9.36789 13.6528 9.2915 13.8403 9.2915 14.0625C9.2915 14.2847 9.36789 14.4722 9.52067 14.625C9.67345 14.7778 9.86095 14.8542 10.0832 14.8542ZM9.354 11.8125H10.5832C10.5832 11.4514 10.6283 11.1215 10.7186 10.8229C10.8089 10.5243 11.0901 10.1805 11.5623 9.79166C11.9929 9.43055 12.2984 9.07638 12.479 8.72916C12.6596 8.38193 12.7498 7.99999 12.7498 7.58332C12.7498 6.84721 12.5103 6.25693 12.0311 5.81249C11.5519 5.36805 10.9165 5.14582 10.1248 5.14582C9.44428 5.14582 8.84359 5.31596 8.32275 5.65624C7.80192 5.99652 7.42345 6.46527 7.18734 7.06249L8.2915 7.47916C8.44428 7.09027 8.67345 6.78818 8.979 6.57291C9.28456 6.35763 9.64567 6.24999 10.0623 6.24999C10.5346 6.24999 10.9165 6.37846 11.2082 6.63541C11.4998 6.89235 11.6457 7.22221 11.6457 7.62499C11.6457 7.93054 11.5554 8.21874 11.3748 8.48957C11.1943 8.76041 10.9304 9.04166 10.5832 9.33332C10.1665 9.69443 9.85748 10.0521 9.65609 10.4062C9.4547 10.7604 9.354 11.2292 9.354 11.8125V11.8125ZM9.99984 18.3333C8.86095 18.3333 7.78456 18.1146 6.77067 17.6771C5.75678 17.2396 4.87136 16.6424 4.11442 15.8854C3.35748 15.1285 2.76025 14.243 2.32275 13.2292C1.88525 12.2153 1.6665 11.1389 1.6665 9.99999C1.6665 8.84721 1.88525 7.76388 2.32275 6.74999C2.76025 5.7361 3.35748 4.85416 4.11442 4.10416C4.87136 3.35416 5.75678 2.76041 6.77067 2.32291C7.78456 1.88541 8.86095 1.66666 9.99984 1.66666C11.1526 1.66666 12.2359 1.88541 13.2498 2.32291C14.2637 2.76041 15.1457 3.35416 15.8957 4.10416C16.6457 4.85416 17.2394 5.7361 17.6769 6.74999C18.1144 7.76388 18.3332 8.84721 18.3332 9.99999C18.3332 11.1389 18.1144 12.2153 17.6769 13.2292C17.2394 14.243 16.6457 15.1285 15.8957 15.8854C15.1457 16.6424 14.2637 17.2396 13.2498 17.6771C12.2359 18.1146 11.1526 18.3333 9.99984 18.3333ZM9.99984 17.0833C11.9721 17.0833 13.6457 16.3924 15.0207 15.0104C16.3957 13.6285 17.0832 11.9583 17.0832 9.99999C17.0832 8.02777 16.3957 6.35416 15.0207 4.97916C13.6457 3.60416 11.9721 2.91666 9.99984 2.91666C8.0415 2.91666 6.37137 3.60416 4.98942 4.97916C3.60748 6.35416 2.9165 8.02777 2.9165 9.99999C2.9165 11.9583 3.60748 13.6285 4.98942 15.0104C6.37137 16.3924 8.0415 17.0833 9.99984 17.0833Z" fill="white"/>
</svg>
