<svg width="20" height="20" viewBox="0 0 20 20" fill="none" xmlns="http://www.w3.org/2000/svg">
<path d="M10.2418 6.76667L12.6418 9.16667L1.66683 9.16667C1.2085 9.16667 0.833496 9.54167 0.833496 10C0.833496 10.4583 1.2085 10.8333 1.66683 10.8333L12.6418 10.8333L10.2418 13.2333C9.91683 13.5583 9.91683 14.0833 10.2418 14.4083C10.5668 14.7333 11.0918 14.7333 11.4168 14.4083L15.2418 10.5833C15.5668 10.2583 15.5668 9.73333 15.2418 9.40833L11.4168 5.58333C11.0918 5.25833 10.5668 5.25833 10.2418 5.58333C9.92516 5.90833 9.91683 6.44167 10.2418 6.76667ZM16.6668 5.83333V14.1667C16.6668 14.625 17.0418 15 17.5002 15C17.9585 15 18.3335 14.625 18.3335 14.1667V5.83333C18.3335 5.375 17.9585 5 17.5002 5C17.0418 5 16.6668 5.375 16.6668 5.83333Z" fill="white"/>
</svg>
