<svg width="20" height="20" viewBox="0 0 20 20" fill="#000000" xmlns="http://www.w3.org/2000/svg">
<path d="M9.99102 1.66406C5.39102 1.66406 1.66602 5.3974 1.66602 9.9974C1.66602 14.5974 5.39102 18.3307 9.99102 18.3307C14.5993 18.3307 18.3327 14.5974 18.3327 9.9974C18.3327 5.3974 14.5993 1.66406 9.99102 1.66406ZM15.766 6.66406H13.3077C13.041 5.6224 12.6577 4.6224 12.1577 3.6974C13.691 4.2224 14.966 5.28906 15.766 6.66406ZM9.99935 3.36406C10.691 4.36406 11.2327 5.4724 11.591 6.66406H8.40768C8.76602 5.4724 9.30768 4.36406 9.99935 3.36406ZM3.54935 11.6641C3.41602 11.1307 3.33268 10.5724 3.33268 9.9974C3.33268 9.4224 3.41602 8.86406 3.54935 8.33073H6.36602C6.29935 8.88073 6.24935 9.43073 6.24935 9.9974C6.24935 10.5641 6.29935 11.1141 6.36602 11.6641H3.54935ZM4.23268 13.3307H6.69102C6.95768 14.3724 7.34102 15.3724 7.84102 16.2974C6.30768 15.7724 5.03268 14.7141 4.23268 13.3307ZM6.69102 6.66406H4.23268C5.03268 5.28073 6.30768 4.2224 7.84102 3.6974C7.34102 4.6224 6.95768 5.6224 6.69102 6.66406ZM9.99935 16.6307C9.30768 15.6307 8.76602 14.5224 8.40768 13.3307H11.591C11.2327 14.5224 10.691 15.6307 9.99935 16.6307ZM11.9493 11.6641H8.04935C7.97435 11.1141 7.91602 10.5641 7.91602 9.9974C7.91602 9.43073 7.97435 8.8724 8.04935 8.33073H11.9493C12.0243 8.8724 12.0827 9.43073 12.0827 9.9974C12.0827 10.5641 12.0243 11.1141 11.9493 11.6641ZM12.1577 16.2974C12.6577 15.3724 13.041 14.3724 13.3077 13.3307H15.766C14.966 14.7057 13.691 15.7724 12.1577 16.2974ZM13.6327 11.6641C13.6994 11.1141 13.7493 10.5641 13.7493 9.9974C13.7493 9.43073 13.6994 8.88073 13.6327 8.33073H16.4493C16.5827 8.86406 16.666 9.4224 16.666 9.9974C16.666 10.5724 16.5827 11.1307 16.4493 11.6641H13.6327Z"/>
</svg>
