<svg width="20" height="20" viewBox="0 0 15 15" fill="none" xmlns="http://www.w3.org/2000/svg">
<path d="M11.25 11.875H3.75C3.40625 11.875 3.125 11.5938 3.125 11.25V3.75C3.125 3.40625 3.40625 3.125 3.75 3.125H6.875C7.21875 3.125 7.5 2.84375 7.5 2.5C7.5 2.15625 7.21875 1.875 6.875 1.875H3.125C2.43125 1.875 1.875 2.4375 1.875 3.125V11.875C1.875 12.5625 2.4375 13.125 3.125 13.125H11.875C12.5625 13.125 13.125 12.5625 13.125 11.875V8.125C13.125 7.78125 12.8438 7.5 12.5 7.5C12.1562 7.5 11.875 7.78125 11.875 8.125V11.25C11.875 11.5938 11.5938 11.875 11.25 11.875ZM8.75 2.5C8.75 2.84375 9.03125 3.125 9.375 3.125H10.9937L5.2875 8.83125C5.04375 9.075 5.04375 9.46875 5.2875 9.7125C5.53125 9.95625 5.925 9.95625 6.16875 9.7125L11.875 4.00625V5.625C11.875 5.96875 12.1562 6.25 12.5 6.25C12.8438 6.25 13.125 5.96875 13.125 5.625V1.875H9.375C9.03125 1.875 8.75 2.15625 8.75 2.5Z" fill="black"/>
</svg>
