<svg width="20" height="20" viewBox="0 0 16 16" fill="none" xmlns="http://www.w3.org/2000/svg">
<path d="M3.33333 3.33333H7.33333C7.7 3.33333 8 3.03333 8 2.66667C8 2.3 7.7 2 7.33333 2H3.33333C2.6 2 2 2.6 2 3.33333V12.6667C2 13.4 2.6 14 3.33333 14H7.33333C7.7 14 8 13.7 8 13.3333C8 12.9667 7.7 12.6667 7.33333 12.6667H3.33333V3.33333Z" fill="white"/>
<path d="M13.7667 7.7666L11.9067 5.9066C11.6933 5.69326 11.3333 5.83993 11.3333 6.13993V7.33326H6.66667C6.3 7.33326 6 7.63326 6 7.99993C6 8.3666 6.3 8.6666 6.66667 8.6666H11.3333V9.85993C11.3333 10.1599 11.6933 10.3066 11.9 10.0933L13.76 8.23326C13.8933 8.1066 13.8933 7.89326 13.7667 7.7666Z" fill="white"/>
</svg>
