<svg width="20" height="20" viewBox="0 0 15 15" fill="none" xmlns="http://www.w3.org/2000/svg">
<path d="M3.75 5.62509H1.875C1.53125 5.62509 1.25 5.34384 1.25 5.00009C1.25 4.65634 1.53125 4.37509 1.875 4.37509H3.75C4.09375 4.37509 4.375 4.65634 4.375 5.00009C4.375 5.34384 4.09375 5.62509 3.75 5.62509ZM3.75 7.50009H1.875C1.53125 7.50009 1.25 7.78134 1.25 8.12509C1.25 8.46884 1.53125 8.75009 1.875 8.75009H3.75C4.09375 8.75009 4.375 8.46884 4.375 8.12509C4.375 7.78134 4.09375 7.50009 3.75 7.50009ZM12.425 11.4313L10.475 9.48134C9.9375 9.83134 9.29375 10.0313 8.6 9.99384C7.11875 9.92509 5.85 8.76884 5.65 7.30009C5.375 5.20634 7.18125 3.43759 9.29375 3.79384C10.5125 4.00009 11.525 4.95009 11.7938 6.15634C12 7.06884 11.8 7.91884 11.3563 8.59384L13.3125 10.5501C13.5563 10.7938 13.5563 11.1876 13.3125 11.4313C13.0688 11.6751 12.6688 11.6751 12.425 11.4313ZM10.625 6.87509C10.625 5.84384 9.78125 5.00009 8.75 5.00009C7.71875 5.00009 6.875 5.84384 6.875 6.87509C6.875 7.90634 7.71875 8.75009 8.75 8.75009C9.78125 8.75009 10.625 7.90634 10.625 6.87509ZM1.875 11.8751H6.875C7.21875 11.8751 7.5 11.5938 7.5 11.2501C7.5 10.9063 7.21875 10.6251 6.875 10.6251H1.875C1.53125 10.6251 1.25 10.9063 1.25 11.2501C1.25 11.5938 1.53125 11.8751 1.875 11.8751Z" fill="#1F1F1F"/>
</svg>
