<svg width="16" height="16" viewBox="0 0 16 16" fill="none" xmlns="http://www.w3.org/2000/svg">
<path d="M2.5 12.6667C2.35556 12.6667 2.23611 12.6194 2.14167 12.525C2.04723 12.4306 2 12.3111 2 12.1667C2 12.0222 2.04723 11.9028 2.14167 11.8083C2.23611 11.7139 2.35556 11.6667 2.5 11.6667H13.5C13.6444 11.6667 13.7639 11.7139 13.8583 11.8083C13.9528 11.9028 14 12.0222 14 12.1667C14 12.3111 13.9528 12.4306 13.8583 12.525C13.7639 12.6194 13.6444 12.6667 13.5 12.6667H2.5ZM2.5 8.50004C2.35556 8.50004 2.23611 8.45282 2.14167 8.35837C2.04723 8.26393 2 8.14448 2 8.00004C2 7.8556 2.04723 7.73615 2.14167 7.64171C2.23611 7.54726 2.35556 7.50004 2.5 7.50004H13.5C13.6444 7.50004 13.7639 7.54726 13.8583 7.64171C13.9528 7.73615 14 7.8556 14 8.00004C14 8.14448 13.9528 8.26393 13.8583 8.35837C13.7639 8.45282 13.6444 8.50004 13.5 8.50004H2.5ZM2.5 4.33337C2.35556 4.33337 2.23611 4.28615 2.14167 4.19171C2.04723 4.09726 2 3.97782 2 3.83337C2 3.68893 2.04723 3.56948 2.14167 3.47504C2.23611 3.3806 2.35556 3.33337 2.5 3.33337H13.5C13.6444 3.33337 13.7639 3.3806 13.8583 3.47504C13.9528 3.56948 14 3.68893 14 3.83337C14 3.97782 13.9528 4.09726 13.8583 4.19171C13.7639 4.28615 13.6444 4.33337 13.5 4.33337H2.5Z" fill="#0B1014"/>
</svg>
