<svg width="20" height="20" viewBox="0 0 20 20" fill="none" xmlns="http://www.w3.org/2000/svg">
<path d="M7.50002 5.37869L12.2865 10.1652C12.4186 9.85954 12.4917 9.5219 12.4917 9.16667L12.5 4.16667C12.5 2.78334 11.3834 1.66667 10 1.66667C8.61669 1.66667 7.50002 2.78334 7.50002 4.16667V5.37869Z" fill="black"/>
<path d="M3.63604 3.63604L2.57538 4.6967L7.5509 9.67222C7.75056 10.649 8.51771 11.4161 9.49447 11.6158L11.1483 13.2697C10.7772 13.366 10.3913 13.4167 10 13.4167C7.70002 13.4167 5.58335 11.6667 5.58335 9.16667H4.16669C4.16669 12.0083 6.43335 14.3583 9.16669 14.7667V17.5H10.8334V14.7667C11.324 14.6949 11.7996 14.5602 12.2498 14.3711L15.3033 17.4246L16.364 16.364L3.63604 3.63604Z" fill="black"/>
<path d="M13.6699 11.5485L14.6553 12.534C15.3885 11.5937 15.8334 10.4293 15.8334 9.16667H14.4167C14.4167 10.0758 14.1367 10.8858 13.6699 11.5485Z" fill="black"/>
</svg>
