<svg width="20" height="20" viewBox="0 0 16 16" fill="none" xmlns="http://www.w3.org/2000/svg">
<path d="M8.00016 9.33333C9.10683 9.33333 9.9935 8.44 9.9935 7.33333L10.0002 3.33333C10.0002 2.22666 9.10683 1.33333 8.00016 1.33333C6.8935 1.33333 6.00016 2.22666 6.00016 3.33333V7.33333C6.00016 8.44 6.8935 9.33333 8.00016 9.33333ZM11.5335 7.33333C11.5335 9.33333 9.84016 10.7333 8.00016 10.7333C6.16016 10.7333 4.46683 9.33333 4.46683 7.33333H3.3335C3.3335 9.60666 5.14683 11.4867 7.3335 11.8133V14H8.66683V11.8133C10.8535 11.4933 12.6668 9.61333 12.6668 7.33333H11.5335Z" fill="#1F1F1F"/>
</svg>
