<svg width="14" height="14" viewBox="0 0 14 14" fill="none" xmlns="http://www.w3.org/2000/svg">
<path d="M6.99984 12.8333C5.85262 12.8333 4.88525 12.4396 4.09775 11.6521C3.31025 10.8646 2.9165 9.89722 2.9165 8.75V4.95833C2.9165 3.81111 3.31025 2.84375 4.09775 2.05625C4.88525 1.26875 5.85262 0.875 6.99984 0.875C8.14706 0.875 9.11442 1.26875 9.90192 2.05625C10.6894 2.84375 11.0832 3.81111 11.0832 4.95833V8.75C11.0832 9.89722 10.6894 10.8646 9.90192 11.6521C9.11442 12.4396 8.14706 12.8333 6.99984 12.8333ZM7.43734 4.95833H10.2082C10.2082 4.17083 9.95053 3.47083 9.43525 2.85833C8.91998 2.24583 8.254 1.88611 7.43734 1.77917V4.95833ZM6.99984 11.9583C7.88456 11.9583 8.64046 11.6448 9.26755 11.0177C9.89463 10.3906 10.2082 9.63472 10.2082 8.75V5.83333H3.7915V8.75C3.7915 9.63472 4.10505 10.3906 4.73213 11.0177C5.35921 11.6448 6.11512 11.9583 6.99984 11.9583Z" fill="white"/>
</svg>
