<svg width="20" height="20" viewBox="0 0 20 20" fill="none" xmlns="http://www.w3.org/2000/svg">
<path d="M13.3335 9.16666C14.7168 9.16666 15.8252 8.04999 15.8252 6.66666C15.8252 5.28332 14.7168 4.16666 13.3335 4.16666C11.9502 4.16666 10.8335 5.28332 10.8335 6.66666C10.8335 8.04999 11.9502 9.16666 13.3335 9.16666ZM6.66683 9.16666C8.05016 9.16666 9.15849 8.04999 9.15849 6.66666C9.15849 5.28332 8.05016 4.16666 6.66683 4.16666C5.2835 4.16666 4.16683 5.28332 4.16683 6.66666C4.16683 8.04999 5.2835 9.16666 6.66683 9.16666ZM6.66683 10.8333C4.72516 10.8333 0.833496 11.8083 0.833496 13.75V15C0.833496 15.4583 1.2085 15.8333 1.66683 15.8333H11.6668C12.1252 15.8333 12.5002 15.4583 12.5002 15V13.75C12.5002 11.8083 8.60849 10.8333 6.66683 10.8333ZM13.3335 10.8333C13.0918 10.8333 12.8168 10.85 12.5252 10.875C12.5418 10.8833 12.5502 10.9 12.5585 10.9083C13.5085 11.6 14.1668 12.525 14.1668 13.75V15C14.1668 15.2917 14.1085 15.575 14.0168 15.8333H18.3335C18.7918 15.8333 19.1668 15.4583 19.1668 15V13.75C19.1668 11.8083 15.2752 10.8333 13.3335 10.8333Z" fill="#1F1F1F"/>
</svg>
