<svg width="20" height="20" viewBox="0 0 20 20" fill="none" xmlns="http://www.w3.org/2000/svg">
<path fill-rule="evenodd" clip-rule="evenodd" d="M16.1619 10.1657C16.1619 10.702 16.0934 11.2223 15.9647 11.7183C15.8271 11.7408 15.6712 11.7609 15.4946 11.777C14.0717 11.9071 12.0353 11.6694 9.69667 11.0427C7.35806 10.4161 5.47563 9.6038 4.3084 8.77968C4.21115 8.71102 4.12286 8.64552 4.04272 8.5832C4.258 7.77067 4.63511 7.02399 5.13746 6.37974C4.92224 6.38499 4.7155 6.39662 4.51791 6.41468C2.84741 6.5674 2.36701 7.09752 2.26342 7.48413C2.15982 7.87075 2.31081 8.57004 3.68114 9.53755C3.73874 9.57822 3.79776 9.61876 3.85815 9.65917C3.85985 9.63817 3.86167 9.6172 3.86359 9.59626C5.15658 10.4844 7.11837 11.3088 9.45744 11.9356C11.5531 12.4971 13.4657 12.7698 14.9658 12.7323C15.145 12.7262 15.318 12.7155 15.4846 12.7003C17.1551 12.5476 17.6355 12.0174 17.7391 11.6308C17.8427 11.2442 17.6917 10.5449 16.3214 9.5774C16.2559 9.53119 16.1886 9.48513 16.1196 9.43926C16.1475 9.67751 16.1619 9.91992 16.1619 10.1657ZM15.6699 7.74889C17.9845 8.95807 19.3368 10.4296 18.9295 11.9498C18.2916 14.3307 13.9753 14.45 9.04432 13.1288C4.11337 11.8075 0.435029 9.54603 1.07298 7.16516C1.50006 5.57128 3.57565 4.99093 6.38056 5.17783C7.39675 4.4392 8.64739 4.00354 9.99977 4.00354C12.5452 4.00354 14.7302 5.5469 15.6699 7.74889ZM8.89923 14.0188C10.6853 14.4974 12.4261 14.8012 13.9743 14.8749C12.9014 15.7814 11.5144 16.3278 9.99977 16.3278C7.34434 16.3278 5.0812 14.6482 4.21483 12.2934C5.56456 12.9733 7.17278 13.5562 8.89923 14.0188Z" fill="#000000"/>
</svg>
