<svg width="25" height="25" viewBox="0 0 25 25" fill="none" xmlns="http://www.w3.org/2000/svg">
<mask id="mask0_3259_5207" style="mask-type:alpha" maskUnits="userSpaceOnUse" x="0" y="0" width="25" height="25">
<rect x="0.231445" y="0.975586" width="24" height="24" fill="#D9D9D9"/>
</mask>
<g mask="url(#mask0_3259_5207)">
<path d="M19.8314 21.9756L13.5314 15.6756C13.0314 16.0756 12.4564 16.3923 11.8064 16.6256C11.1564 16.8589 10.4648 16.9756 9.73145 16.9756C7.91478 16.9756 6.37728 16.3464 5.11895 15.0881C3.86061 13.8298 3.23145 12.2923 3.23145 10.4756C3.23145 8.65892 3.86061 7.12142 5.11895 5.86309C6.37728 4.60475 7.91478 3.97559 9.73145 3.97559C11.5481 3.97559 13.0856 4.60475 14.3439 5.86309C15.6023 7.12142 16.2314 8.65892 16.2314 10.4756C16.2314 11.2089 16.1148 11.9006 15.8814 12.5506C15.6481 13.2006 15.3314 13.7756 14.9314 14.2756L21.2314 20.5756L19.8314 21.9756ZM9.73145 14.9756C10.9814 14.9756 12.0439 14.5381 12.9189 13.6631C13.7939 12.7881 14.2314 11.7256 14.2314 10.4756C14.2314 9.22559 13.7939 8.16309 12.9189 7.28809C12.0439 6.41309 10.9814 5.97559 9.73145 5.97559C8.48145 5.97559 7.41895 6.41309 6.54395 7.28809C5.66895 8.16309 5.23145 9.22559 5.23145 10.4756C5.23145 11.7256 5.66895 12.7881 6.54395 13.6631C7.41895 14.5381 8.48145 14.9756 9.73145 14.9756Z" fill="#1C1B1F"/>
</g>
</svg>
