<svg width="20" height="20" viewBox="0 0 20 20" fill="none" xmlns="http://www.w3.org/2000/svg">
<path d="M16.2502 9.99999C16.2502 9.80832 16.2419 9.62499 16.2252 9.43332L17.7752 8.25832C18.1085 8.00832 18.2002 7.54166 17.9919 7.17499L16.4335 4.48332C16.2252 4.11666 15.7752 3.96666 15.3919 4.13332L13.6002 4.89166C13.2919 4.67499 12.9669 4.48332 12.6252 4.32499L12.3835 2.39999C12.3335 1.98332 11.9752 1.66666 11.5585 1.66666H8.45021C8.02521 1.66666 7.66688 1.98332 7.61688 2.39999L7.37521 4.32499C7.03354 4.48332 6.70854 4.67499 6.40021 4.89166L4.60854 4.13332C4.22521 3.96666 3.77521 4.11666 3.56688 4.48332L2.00854 7.18332C1.80021 7.54999 1.89188 8.00832 2.22521 8.26666L3.77521 9.44166C3.75854 9.62499 3.75021 9.80832 3.75021 9.99999C3.75021 10.1917 3.75854 10.375 3.77521 10.5667L2.22521 11.7417C1.89188 11.9917 1.80021 12.4583 2.00854 12.825L3.56688 15.5167C3.77521 15.8833 4.22521 16.0333 4.60854 15.8667L6.40021 15.1083C6.70854 15.325 7.03354 15.5167 7.37521 15.675L7.61688 17.6C7.66688 18.0167 8.02521 18.3333 8.44188 18.3333H11.5502C11.9669 18.3333 12.3252 18.0167 12.3752 17.6L12.6169 15.675C12.9585 15.5167 13.2835 15.325 13.5919 15.1083L15.3835 15.8667C15.7669 16.0333 16.2169 15.8833 16.4252 15.5167L17.9835 12.825C18.1919 12.4583 18.1002 12 17.7669 11.7417L16.2169 10.5667C16.2419 10.375 16.2502 10.1917 16.2502 9.99999ZM10.0335 12.9167C8.42521 12.9167 7.11688 11.6083 7.11688 9.99999C7.11688 8.39166 8.42521 7.08332 10.0335 7.08332C11.6419 7.08332 12.9502 8.39166 12.9502 9.99999C12.9502 11.6083 11.6419 12.9167 10.0335 12.9167Z" fill="#1F1F1F"/>
</svg>
