<svg width="16" height="16" viewBox="0 0 16 16" fill="none" xmlns="http://www.w3.org/2000/svg">
<path d="M11.0667 14C10.7889 14 10.5528 13.9028 10.3584 13.7083C10.1639 13.5139 10.0667 13.2778 10.0667 13V11.9167H8.50004C8.22226 11.9167 7.98615 11.8194 7.79171 11.625C7.59726 11.4306 7.50004 11.1944 7.50004 10.9167V5.08333H5.95004V6.25C5.95004 6.52778 5.85282 6.76389 5.65837 6.95833C5.46393 7.15278 5.22782 7.25 4.95004 7.25H2.33337C2.0556 7.25 1.81949 7.15278 1.62504 6.95833C1.4306 6.76389 1.33337 6.52778 1.33337 6.25V3C1.33337 2.72222 1.4306 2.48611 1.62504 2.29167C1.81949 2.09722 2.0556 2 2.33337 2H4.95004C5.22782 2 5.46393 2.09722 5.65837 2.29167C5.85282 2.48611 5.95004 2.72222 5.95004 3V4.08333H10.0667V3C10.0667 2.72222 10.1639 2.48611 10.3584 2.29167C10.5528 2.09722 10.7889 2 11.0667 2H13.6667C13.9445 2 14.1806 2.09722 14.375 2.29167C14.5695 2.48611 14.6667 2.72222 14.6667 3V6.25C14.6667 6.52778 14.5695 6.76389 14.375 6.95833C14.1806 7.15278 13.9445 7.25 13.6667 7.25H11.0667C10.7889 7.25 10.5528 7.15278 10.3584 6.95833C10.1639 6.76389 10.0667 6.52778 10.0667 6.25V5.08333H8.50004V10.9167H10.0667V9.75C10.0667 9.47222 10.1639 9.23611 10.3584 9.04167C10.5528 8.84722 10.7889 8.75 11.0667 8.75H13.6667C13.9445 8.75 14.1806 8.84722 14.375 9.04167C14.5695 9.23611 14.6667 9.47222 14.6667 9.75V13C14.6667 13.2778 14.5695 13.5139 14.375 13.7083C14.1806 13.9028 13.9445 14 13.6667 14H11.0667ZM2.33337 3V6.25V3ZM11.0667 9.75V13V9.75ZM11.0667 3V6.25V3ZM11.0667 6.25H13.6667V3H11.0667V6.25ZM11.0667 13H13.6667V9.75H11.0667V13ZM2.33337 6.25H4.95004V3H2.33337V6.25Z" fill="black"/>
</svg>
