<svg width="24" height="24" viewBox="0 0 24 24" fill="none" xmlns="http://www.w3.org/2000/svg">
<mask id="mask0_3279_5275" style="mask-type:alpha" maskUnits="userSpaceOnUse" x="0" y="0" width="24" height="24">
<rect width="24" height="24" fill="#D9D9D9"/>
</mask>
<g mask="url(#mask0_3279_5275)">
<path d="M3.99951 20C3.44951 20 2.97868 19.8042 2.58701 19.4125C2.19535 19.0208 1.99951 18.55 1.99951 18V6C1.99951 5.45 2.19535 4.97917 2.58701 4.5875C2.97868 4.19583 3.44951 4 3.99951 4H19.9995C20.5495 4 21.0203 4.19583 21.412 4.5875C21.8037 4.97917 21.9995 5.45 21.9995 6V18C21.9995 18.55 21.8037 19.0208 21.412 19.4125C21.0203 19.8042 20.5495 20 19.9995 20H3.99951ZM3.99951 18H19.9995V8H3.99951V18Z" fill="black"/>
</g>
</svg>
