<svg width="20" height="20" viewBox="0 0 20 20" fill="none" xmlns="http://www.w3.org/2000/svg">
<path fill-rule="evenodd" clip-rule="evenodd" d="M17.4968 5H2.44112C1.64521 5 1 5.64521 1 6.44112V12.8361C1 13.632 1.64521 14.2772 2.44112 14.2772H7.32796C7.85547 14.2772 8.32724 13.9489 8.51045 13.4542L9.1624 11.694C9.45271 10.9101 10.5614 10.9101 10.8517 11.694L11.5036 13.4542C11.6868 13.9489 12.1586 14.2772 12.6861 14.2772H17.5589C18.3603 14.2772 19.0077 13.6235 18.9999 12.8221L18.9378 6.42713C18.9302 5.63672 18.2872 5 17.4968 5ZM7.12484 9.68365C7.12484 10.8775 6.15702 11.8453 4.96315 11.8453C3.76928 11.8453 2.80146 10.8775 2.80146 9.68365C2.80146 8.48979 3.76928 7.52197 4.96315 7.52197C6.15702 7.52197 7.12484 8.48979 7.12484 9.68365ZM15.051 11.8453C16.2449 11.8453 17.2127 10.8775 17.2127 9.68365C17.2127 8.48979 16.2449 7.52197 15.051 7.52197C13.8572 7.52197 12.8893 8.48979 12.8893 9.68365C12.8893 10.8775 13.8572 11.8453 15.051 11.8453Z" fill="black"/>
<path d="M8.51045 13.4542L8.42598 13.4229L8.42598 13.4229L8.51045 13.4542ZM9.1624 11.694L9.24686 11.7252L9.24686 11.7252L9.1624 11.694ZM10.8517 11.694L10.7672 11.7252L10.7672 11.7252L10.8517 11.694ZM11.5036 13.4542L11.4191 13.4855L11.4191 13.4855L11.5036 13.4542ZM18.9999 12.8221L19.09 12.8213L19.09 12.8213L18.9999 12.8221ZM18.9378 6.42713L18.8478 6.42801L18.8478 6.42801L18.9378 6.42713ZM2.44112 5.09007H17.4968V4.90993H2.44112V5.09007ZM1.09007 6.44112C1.09007 5.69496 1.69496 5.09007 2.44112 5.09007V4.90993C1.59547 4.90993 0.90993 5.59547 0.90993 6.44112H1.09007ZM1.09007 12.8361V6.44112H0.90993V12.8361H1.09007ZM2.44112 14.1872C1.69496 14.1872 1.09007 13.5823 1.09007 12.8361H0.90993C0.90993 13.6818 1.59547 14.3673 2.44112 14.3673V14.1872ZM7.32796 14.1872H2.44112V14.3673H7.32796V14.1872ZM8.42598 13.4229C8.25586 13.8823 7.81779 14.1872 7.32796 14.1872V14.3673C7.89315 14.3673 8.39861 14.0155 8.59491 13.4855L8.42598 13.4229ZM9.07793 11.6627L8.42598 13.4229L8.59491 13.4855L9.24686 11.7252L9.07793 11.6627ZM10.9361 11.6627C10.6168 10.8005 9.39727 10.8005 9.07793 11.6627L9.24686 11.7252C9.50814 11.0198 10.5059 11.0198 10.7672 11.7252L10.9361 11.6627ZM11.5881 13.4229L10.9361 11.6627L10.7672 11.7252L11.4191 13.4855L11.5881 13.4229ZM12.6861 14.1872C12.1963 14.1872 11.7582 13.8823 11.5881 13.4229L11.4191 13.4855C11.6154 14.0155 12.1209 14.3673 12.6861 14.3673V14.1872ZM17.5589 14.1872H12.6861V14.3673H17.5589V14.1872ZM18.9099 12.823C18.9172 13.5743 18.3102 14.1872 17.5589 14.1872V14.3673C18.4103 14.3673 19.0983 13.6727 19.09 12.8213L18.9099 12.823ZM18.8478 6.42801L18.9099 12.823L19.09 12.8213L19.0279 6.42626L18.8478 6.42801ZM17.4968 5.09007C18.2378 5.09007 18.8406 5.68699 18.8478 6.42801L19.0279 6.42626C19.0198 5.58644 18.3366 4.90993 17.4968 4.90993V5.09007ZM4.96315 11.9354C6.20676 11.9354 7.21491 10.9273 7.21491 9.68365H7.03477C7.03477 10.8278 6.10727 11.7553 4.96315 11.7553V11.9354ZM2.71139 9.68365C2.71139 10.9273 3.71954 11.9354 4.96315 11.9354V11.7553C3.81903 11.7553 2.89153 10.8278 2.89153 9.68365H2.71139ZM4.96315 7.4319C3.71954 7.4319 2.71139 8.44004 2.71139 9.68365H2.89153C2.89153 8.53953 3.81903 7.61204 4.96315 7.61204V7.4319ZM7.21491 9.68365C7.21491 8.44004 6.20676 7.4319 4.96315 7.4319V7.61204C6.10727 7.61204 7.03477 8.53953 7.03477 9.68365H7.21491ZM17.1227 9.68365C17.1227 10.8278 16.1952 11.7553 15.051 11.7553V11.9354C16.2946 11.9354 17.3028 10.9273 17.3028 9.68365H17.1227ZM15.051 7.61204C16.1952 7.61204 17.1227 8.53953 17.1227 9.68365H17.3028C17.3028 8.44004 16.2946 7.4319 15.051 7.4319V7.61204ZM12.9794 9.68365C12.9794 8.53953 13.9069 7.61204 15.051 7.61204V7.4319C13.8074 7.4319 12.7993 8.44004 12.7993 9.68365H12.9794ZM15.051 11.7553C13.9069 11.7553 12.9794 10.8278 12.9794 9.68365H12.7993C12.7993 10.9273 13.8074 11.9354 15.051 11.9354V11.7553Z" fill="black"/>
</svg>
